<svg
    xmlns="http://www.w3.org/2000/svg"
    width="52"
    height="52"
    viewBox="0 0 52 52"
    fill="none">

    <defs>
        <linearGradient id="bgGradient" x1="0%" y1="0%" x2="100%" y2="100%">
            <stop offset="0%" stop-color="#00D4FF"/>
            <stop offset="100%" stop-color="#2563EB"/>
        </linearGradient>

        <filter id="glow" x="-50%" y="-50%" width="200%" height="200%">
            <feDropShadow
                dx="0"
                dy="0"
                stdDeviation="5"
                flood-color="#00D4FF"
                flood-opacity="0.35"/>
        </filter>
    </defs>

    <!-- Background -->
    <rect
        x="0"
        y="0"
        width="52"
        height="52"
        rx="14"
        fill="url(#bgGradient)"
        filter="url(#glow)"/>

    <!-- Shield -->
    <g
        transform="translate(13 11) scale(1.08)"
        stroke="white"
        stroke-width="2"
        stroke-linecap="round"
        stroke-linejoin="round">

        <path d="M20 13c0 5-3.5 7.5-7.66 8.95a1 1 0 0 1-.67-.01C7.5 20.5 4 18 4 13V6a1 1 0 0 1 1-1c2 0 4.5-1.2 6.24-2.72a1.17 1.17 0 0 1 1.52 0C14.51 3.81 17 5 19 5a1 1 0 0 1 1 1z"/>
    </g>

    <!-- Zap -->
    <g
        transform="translate(34 34) scale(0.45)"
        stroke="white"
        stroke-width="2"
        stroke-linecap="round"
        stroke-linejoin="round">

        <path d="M4 14a1 1 0 0 1-.78-1.63l9.9-10.2a.5.5 0 0 1 .86.46l-1.92 6.02A1 1 0 0 0 13 10h7a1 1 0 0 1 .78 1.63l-9.9 10.2a.5.5 0 0 1-.86-.46l1.92-6.02A1 1 0 0 0 11 14z"/>
    </g>

</svg>